<?xml version="1.0" encoding="UTF-8" standalone="no"?>
<!DOCTYPE svg PUBLIC "-//W3C//DTD SVG 1.1//EN" "http://www.w3.org/Graphics/SVG/1.1/DTD/svg11.dtd">
<svg width="100%" height="100%" viewBox="0 0 44 46" version="1.1" xmlns="http://www.w3.org/2000/svg" xmlns:xlink="http://www.w3.org/1999/xlink" xml:space="preserve" xmlns:serif="http://www.serif.com/" style="fill-rule:evenodd;clip-rule:evenodd;stroke-linejoin:round;stroke-miterlimit:2;">
    <g transform="matrix(1,0,0,1,-392,-398)">
        <g transform="matrix(1,0,0,0.9,-24,40.8)">
            <path d="M436,412.62C436,410.07 434.137,408 431.842,408L420.158,408C417.863,408 416,410.07 416,412.62L416,443.38C416,445.93 417.863,448 420.158,448L431.842,448C434.137,448 436,445.93 436,443.38L436,412.62Z" style="fill:rgb(241,241,241);"/>
        </g>
        <g transform="matrix(0.375,0,0,0.222222,250.5,308.444)">
            <rect x="392" y="412" width="24" height="36" style="fill:rgb(241,241,241);"/>
        </g>
        <g transform="matrix(0.458333,0,0,0.222222,216.833,306.444)">
            <rect x="392" y="412" width="24" height="36" style="fill:rgb(254,210,154);"/>
        </g>
        <g transform="matrix(0.428571,0,0,0.75,218.982,105.5)">
            <path d="M411,407C411,406.448 410.216,406 409.25,406C408.284,406 407.5,406.448 407.5,407L407.5,417C407.5,417.552 408.284,418 409.25,418C410.216,418 411,417.552 411,417L411,407Z" style="fill:white;"/>
        </g>
        <g transform="matrix(1.04688,0,0,0.928571,-39.7813,31.3571)">
            <rect x="414" y="418" width="16" height="14" style="fill:rgb(253,254,255);"/>
        </g>
        <g transform="matrix(0.703966,0,0,0.761816,99.2669,106.19)">
            <g transform="matrix(12,0,0,12,440.32,423.614)">
            </g>
            <text x="419.659px" y="423.614px" style="font-family:'FranklinGothic-Medium', 'Franklin Gothic Medium', sans-serif;font-size:12px;">CSS</text>
        </g>
        <g transform="matrix(1,0,0,0.9,-1.13687e-13,40.8)">
            <path d="M436,412.62C436,410.07 434.137,408 431.842,408L420.158,408C417.863,408 416,410.07 416,412.62L416,443.38C416,445.93 417.863,448 420.158,448L431.842,448C434.137,448 436,445.93 436,443.38L436,412.62Z" style="fill:rgb(241,241,241);"/>
        </g>
        <g transform="matrix(0.375,0,0,0.222222,274.5,308.444)">
            <rect x="392" y="412" width="24" height="36" style="fill:rgb(241,241,241);"/>
        </g>
        <g transform="matrix(0.458333,0,0,0.222222,240.833,306.444)">
            <rect x="392" y="412" width="24" height="36" style="fill:rgb(154,212,254);"/>
        </g>
        <g transform="matrix(0.428571,0,0,0.75,242.982,105.5)">
            <path d="M411,407C411,406.448 410.216,406 409.25,406C408.284,406 407.5,406.448 407.5,407L407.5,417C407.5,417.552 408.284,418 409.25,418C410.216,418 411,417.552 411,417L411,407Z" style="fill:white;"/>
        </g>
        <g transform="matrix(1.04688,0,0,0.928571,-15.7813,31.3571)">
            <rect x="414" y="418" width="16" height="14" style="fill:rgb(253,254,255);"/>
        </g>
        <g transform="matrix(0.703966,0,0,0.761816,126.717,106.331)">
            <g transform="matrix(12,0,0,12,430.974,423.614)">
            </g>
            <text x="419.659px" y="423.614px" style="font-family:'FranklinGothic-Medium', 'Franklin Gothic Medium', sans-serif;font-size:12px;">JS</text>
        </g>
    </g>
</svg>
